<svg width="160" height="108" viewBox="0 0 160 108" fill="none" xmlns="http://www.w3.org/2000/svg">
<path fill-rule="evenodd" clip-rule="evenodd" d="M50 101C77.6142 101 100 78.6142 100 51C100 23.3858 77.6142 1 50 1C22.3858 1 0 23.3858 0 51C0 78.6142 22.3858 101 50 101ZM50 91C72.0914 91 90 73.0914 90 51C90 28.9086 72.0914 11 50 11C27.9086 11 10 28.9086 10 51C10 73.0914 27.9086 91 50 91Z" fill="#272727"/>
<path d="M50 81C66.5685 81 80 67.5685 80 51C80 48.7286 79.7476 46.5161 79.2692 44.3891C78.7613 42.1307 75.7814 41.698 73.7195 42.75C72.1531 43.5493 70.3792 44 68.5 44C62.1487 44 57 38.8513 57 32.5C57 30.6208 57.4507 28.8469 58.25 27.2805C59.302 25.2186 58.8693 22.2387 56.6109 21.7308C54.4839 21.2524 52.2714 21 50 21C33.4315 21 20 34.4315 20 51C20 67.5685 33.4315 81 50 81Z" fill="#272727"/>
<path d="M147.498 98.1795C152.337 101.561 148.347 109.066 142.837 106.944L84.874 84.6273C82.0733 83.549 80.8469 80.2636 82.2558 77.6138L89.3049 64.3564C90.7138 61.7066 94.1233 60.8863 96.5834 62.6052L147.498 98.1795Z" fill="#272727"/>
<path d="M96.2893 0C92.0783 0 90.0838 6.15606 93.0195 9.17502C103.528 19.9821 110 34.7353 110 51C110 52.9147 109.91 54.8085 109.735 56.6774C109.551 58.636 110.369 60.576 111.981 61.7028C115.011 63.82 119.202 62.1693 119.598 58.4941C120.129 53.556 120.136 48.5574 119.606 43.5824C118.393 32.1984 114.406 21.2856 107.995 11.8006C105.394 7.95274 102.427 4.38749 99.1427 1.1503C98.384 0.402323 97.3547 0 96.2893 0Z" fill="#272727"/>
<path d="M121.674 0C117.68 0 115.397 4.73811 117.541 8.10749C125.43 20.5036 130 35.2181 130 51C130 57.1192 129.313 63.0779 128.012 68.8032C127.534 70.9058 128.317 73.1164 130.084 74.3514C132.899 76.3178 136.812 74.9895 137.6 71.6476C139.31 64.391 140.119 56.9198 139.986 49.4029C139.709 33.7876 135.373 18.5131 127.404 5.08106C126.8 4.06185 126.176 3.05591 125.533 2.06372C124.688 0.759986 123.227 0 121.674 0Z" fill="#272727"/>
<path d="M120.46 89.4866C120.329 89.415 120.28 89.2506 120.352 89.1193C120.417 88.9997 120.56 88.9466 120.687 88.9955L128.944 92.1745C129.427 92.3603 129.641 92.9244 129.397 93.3805C129.172 93.8028 128.645 93.9573 128.225 93.7279L120.46 89.4866Z" fill="#272727"/>
<path d="M145.015 0C141.286 0 138.925 4.06029 140.514 7.43328C146.598 20.3487 150 34.7771 150 50C150 60.6116 148.347 70.8372 145.285 80.4333C144.59 82.6099 145.338 85.0093 147.211 86.3179C149.891 88.1905 153.621 87.0601 154.63 83.9502C158.573 71.798 160.383 59.007 159.933 46.1477C159.403 31.0355 155.765 16.2362 149.291 2.65849C148.508 1.01624 146.834 0 145.015 0Z" fill="#272727"/>
<path d="M147.948 100.062C147.826 100.3 147.534 100.393 147.297 100.27L139.476 96.2294L147.691 99.3924C147.958 99.4954 148.078 99.8067 147.948 100.062Z" fill="#272727"/>
</svg>
