<svg width="24" height="24" viewBox="0 0 24 24" fill="none" xmlns="http://www.w3.org/2000/svg">
<path d="M12 15.5C6.5 15.5 4.271 18.346 4.271 18.346H19.7289H19.73C19.73 18.346 17.5 15.5 12 15.5Z" fill="#272727"/>
<path d="M14.1213 11.1213C13.5587 11.6839 12.7956 12 12 12C11.2044 12 10.4413 11.6839 9.87868 11.1213C9.31607 10.5587 9 9.79565 9 9C9 8.20435 9.31607 7.44129 9.87868 6.87868C10.4413 6.31607 11.2044 6 12 6C12.7956 6 13.5587 6.31607 14.1213 6.87868C14.6839 7.44129 15 8.20435 15 9C15 9.79565 14.6839 10.5587 14.1213 11.1213Z" fill="#272727"/>
<path d="M4.271 18.346C6.105 20.5771 8.88633 22 12 22C15.1137 22 17.8949 20.5771 19.7289 18.346H4.271Z" fill="#272727"/>
<path fill-rule="evenodd" clip-rule="evenodd" d="M12 12C12.7956 12 13.5587 11.6839 14.1213 11.1213C14.6839 10.5587 15 9.79565 15 9C15 8.20435 14.6839 7.44129 14.1213 6.87868C13.5587 6.31607 12.7956 6 12 6C11.2044 6 10.4413 6.31607 9.87868 6.87868C9.31607 7.44129 9 8.20435 9 9C9 9.79565 9.31607 10.5587 9.87868 11.1213C10.4413 11.6839 11.2044 12 12 12Z" fill="#272727"/>
<path d="M2 12C2 6.477 6.477 2 12 2C17.523 2 22 6.477 22 12C22 14.4093 21.148 16.6196 19.7289 18.346M2 12C2 17.523 6.477 22 12 22M2 12C2 14.4093 2.85187 16.6196 4.271 18.346M12 22C15.1137 22 17.8949 20.5771 19.7289 18.346M12 22C8.88633 22 6.105 20.5771 4.271 18.346M4.271 18.346C4.271 18.346 6.5 15.5 12 15.5C17.5 15.5 19.73 18.346 19.73 18.346H19.7289M4.271 18.346H19.7289M12 12C12.7956 12 13.5587 11.6839 14.1213 11.1213C14.6839 10.5587 15 9.79565 15 9C15 8.20435 14.6839 7.44129 14.1213 6.87868C13.5587 6.31607 12.7956 6 12 6C11.2044 6 10.4413 6.31607 9.87868 6.87868C9.31607 7.44129 9 8.20435 9 9C9 9.79565 9.31607 10.5587 9.87868 11.1213C10.4413 11.6839 11.2044 12 12 12Z" stroke="#272727" stroke-width="2.5" stroke-linecap="round" stroke-linejoin="round"/>
</svg>
